#!OML:ASF G:\JayActor3\Patient Classification 1\Patient 1\Session 6\male.ASF
:FULLY-SPECIFIED
:DEGREES
4708
root -1.36318 16.5223 -2.88916 166.203 -70.4808 -165.36
lowerback 0.378339 1.12409 6.13995
upperback -2.74592 1.51968 -2.70283
thorax -2.82671 0.559411 -6.30896
lowerneck 2.01433 12.6229 7.67931
upperneck 4.31352 17.2721 -10.55
head 2.54913 8.54052 -3.8542
rclavicle 4.27387e-015 1.59028e-015
rhumerus -79.01 24.6309 -112.844
rradius 78.6437
rwrist 31.3593
rhand -64.2299 40.8795
rfingers 7.12502
rthumb -36.1687 14.6046
lclavicle 4.27387e-015 1.59028e-015
lhumerus 34.9427 -48.3052 17.6889
lradius 86.2883
lwrist -5.42401
lhand -15.9673 -23.0418
lfingers 7.12502
lthumb 10.2317 6.6894
rfemur -6.69656 8.30198 17.8604
rtibia 26.89
rfoot -20.6664 -14.9158
rtoes -0.408427
lfemur 6.03092 11.5896 -6.47719
ltibia 9.03894
lfoot -11.9212 10.6791
ltoes -7.69509
4709
root -1.3647 16.522 -2.88922 166.232 -70.4736 -165.393
lowerback 0.366503 1.11606 6.12692
upperback -2.74093 1.50781 -2.7061
thorax -2.8168 0.554246 -6.30432
lowerneck 1.99542 12.6123 7.67728
upperneck 4.32732 17.2587 -10.5725
head 2.55686 8.53234 -3.85938
rclavicle 6.75868e-015 7.95139e-015
rhumerus -78.9914 24.6429 -112.846
rradius 78.6361
rwrist 31.3636
rhand -64.231 40.9032
rfingers 7.12502
rthumb -36.1697 14.6286
lclavicle 6.75868e-015 7.95139e-015
lhumerus 35.0942 -48.2686 17.568
lradius 86.2975
lwrist -5.38021
lhand -15.879 -22.9716
lfingers 7.12502
lthumb 10.3169 6.75534
rfemur -6.6949 8.31763 17.8515
rtibia 26.9011
rfoot -20.6797 -14.9164
rtoes -0.384223
lfemur 6.04915 11.5843 -6.48712
ltibia 9.02487
lfoot -11.9196 10.6935
ltoes -7.69952
4710
root -1.36635 16.5218 -2.88922 166.26 -70.4669 -165.425
lowerback 0.353183 1.10858 6.11566
upperback -2.7356 1.49665 -2.70931
thorax -2.80556 0.54946 -6.3006
lowerneck 1.97854 12.6007 7.67649
upperneck 4.34013 17.244 -10.5945
head 2.56391 8.52361 -3.86485
rclavicle -2.64384e-014 2.22639e-014
rhumerus -78.9716 24.6512 -112.845
rradius 78.6286
rwrist 31.3731
rhand -64.2346 40.9046
rfingers 7.12502
rthumb -36.1731 14.6308
lclavicle -2.64384e-014 2.22639e-014
lhumerus 35.2484 -48.237 17.4476
lradius 86.2961
lwrist -5.34333
lhand -15.7984 -22.8554
lfingers 7.12502
lthumb 10.3946 6.86767
rfemur -6.69311 8.3262 17.8417
rtibia 26.9126
rfoot -20.6869 -14.9168
rtoes -0.385506
lfemur 6.0684 11.5784 -6.49696
ltibia 9.01069
lfoot -11.9177 10.708
ltoes -7.70351
4711
root -1.3681 16.5216 -2.88912 166.279 -70.46 -165.449
lowerback 0.339736 1.10149 6.1086
upperback -2.73063 1.48613 -2.71133
thorax -2.79449 0.544896 -6.29804
lowerneck 1.96818 12.5885 7.67678
upperneck 4.34897 17.2284 -10.6173
head 2.5688 8.51475 -3.87136
rclavicle -1.36167e-014 -1.59028e-015
rhumerus -78.9537 24.6566 -112.842
rradius 78.6224
rwrist 31.3819
rhand -64.2376 40.9194
rfingers 7.12502
rthumb -36.176 14.6463
lclavicle -1.36167e-014 -1.59028e-015
lhumerus 35.4022 -48.2095 17.3299
lradius 86.286
lwrist -5.31003
lhand -15.7136 -22.7175
lfingers 7.12502
lthumb 10.4764 7.00142
rfemur -6.68942 8.32954 17.8342
rtibia 26.9226
rfoot -20.6873 -14.9178
rtoes -0.40412
lfemur 6.08617 11.5717 -6.50413
ltibia 9.00136
lfoot -11.9179 10.7219
ltoes -7.71132
4712
root -1.36984 16.5214 -2.88893 166.283 -70.4504 -165.456
lowerback 0.324958 1.09501 6.10736
upperback -2.72627 1.4766 -2.70983
thorax -2.78311 0.540744 -6.2951
lowerneck 1.96145 12.5768 7.67464
upperneck 4.354 17.2134 -10.639
head 2.57172 8.50636 -3.87757
rclavicle -4.96962e-015 2.38542e-014
rhumerus -78.9376 24.6631 -112.836
rradius 78.618
rwrist 31.3926
rhand -64.2413 40.8997
rfingers 7.12502
rthumb -36.1795 14.6275
lclavicle -4.96962e-015 2.38542e-014
lhumerus 35.5521 -48.185 17.2171
lradius 86.2714
lwrist -5.28975
lhand -15.6129 -22.5774
lfingers 7.12502
lthumb 10.5736 7.13664
rfemur -6.68653 8.33209 17.8327
rtibia 26.9294
rfoot -20.685 -14.9184
rtoes -0.429039
lfemur 6.09772 11.5662 -6.50547
ltibia 9.00081
lfoot -11.9234 10.7358
ltoes -7.71875
4713
root -1.37151 16.5212 -2.88869 166.268 -70.4385 -165.44
lowerback 0.30958 1.08871 6.11357
upperback -2.72319 1.46758 -2.70443
thorax -2.77261 0.536657 -6.29233
lowerneck 1.95528 12.5655 7.66634
upperneck 4.35678 17.1986 -10.6568
head 2.57303 8.49807 -3.88196
rclavicle -2.16675e-014 1.59028e-014
rhumerus -78.9245 24.6694 -112.827
rradius 78.6159
rwrist 31.405
rhand -64.244 40.883
rfingers 7.12502
rthumb -36.182 14.6115
lclavicle -2.16675e-014 1.59028e-014
lhumerus 35.696 -48.1634 17.1094
lradius 86.2542
lwrist -5.28451
lhand -15.4928 -22.4446
lfingers 7.12502
lthumb 10.6894 7.26348
rfemur -6.68363 8.33951 17.8402
rtibia 26.9316
rfoot -20.6824 -14.9226
rtoes -0.455036
lfemur 6.10154 11.5611 -6.49965
ltibia 9.01122
lfoot -11.936 10.7485
ltoes -7.71861
4714
root -1.37308 16.521 -2.88847 166.25 -70.4268 -165.418
lowerback 0.293178 1.08223 6.12056
upperback -2.71965 1.45833 -2.69706
thorax -2.76113 0.53253 -6.28787
lowerneck 1.94948 12.5552 7.65575
upperneck 4.35554 17.1847 -10.6736
head 2.57289 8.49038 -3.88586
rclavicle -2.46493e-014 3.18055e-015
rhumerus -78.9122 24.6781 -112.817
rradius 78.6158
rwrist 31.4163
rhand -64.2463 40.8267
rfingers 7.12502
rthumb -36.1843 14.5557
lclavicle -2.46493e-014 3.18055e-015
lhumerus 35.8361 -48.1412 17.0056
lradius 86.2338
lwrist -5.29696
lhand -15.3516 -22.3263
lfingers 7.12502
lthumb 10.8256 7.37471
rfemur -6.68072 8.3512 17.8498
rtibia 26.9303
rfoot -20.6846 -14.9257
rtoes -0.457174
lfemur 6.09948 11.5556 -6.49284
ltibia 9.02833
lfoot -11.9527 10.7609
ltoes -7.71112
